<svg width="24" height="24" viewBox="0 0 24 24" fill="none" xmlns="http://www.w3.org/2000/svg">
<path d="M15.75 17.2523V20.6273C15.75 21.2486 15.2463 21.7523 14.625 21.7523H4.875C4.25368 21.7523 3.75 21.2486 3.75 20.6273V7.87732C3.75 7.256 4.25368 6.75232 4.875 6.75232H6.75C7.26107 6.75232 7.76219 6.79492 8.25 6.87676M15.75 17.2523H19.125C19.7463 17.2523 20.25 16.7486 20.25 16.1273V11.2523C20.25 6.79283 17.0066 3.09087 12.75 2.37676C12.2622 2.29492 11.7611 2.25232 11.25 2.25232H9.375C8.75368 2.25232 8.25 2.756 8.25 3.37732V6.87676M15.75 17.2523H9.375C8.75368 17.2523 8.25 16.7486 8.25 16.1273V6.87676M20.25 13.5023V11.6273C20.25 9.76336 18.739 8.25232 16.875 8.25232H15.375C14.7537 8.25232 14.25 7.74864 14.25 7.12732V5.62732C14.25 3.76336 12.739 2.25232 10.875 2.25232H9.75" stroke="#f4f4f4" stroke-width="1.5" stroke-linecap="round" stroke-linejoin="round"/>
</svg>
