<svg xmlns="http://www.w3.org/2000/svg" width="36" height="36" id="email">
  <g transform="translate(0 -1016.362)">
    <circle cx="18" cy="1034.362" r="18" fill="#1d67b1"></circle>
    <path fill="#154082" d="M19.053 35.963a18 18 0 0 0 .22-.008 18 18 0 0 0 1.786-.217 18 18 0 0 0 1.755-.394 18 18 0 0 0 1.707-.567 18 18 0 0 0 1.643-.736 18 18 0 0 0 1.56-.895A18 18 0 0 0 29.19 32.1a18 18 0 0 0 1.352-1.188 18 18 0 0 0 1.227-1.316 18 18 0 0 0 1.087-1.432 18 18 0 0 0 .942-1.535 18 18 0 0 0 .781-1.62 18 18 0 0 0 .617-1.689 18 18 0 0 0 .37-1.445l-8.37-8.37a.5.5 0 0 0-.496-.495L17.602 13H17.6l-9.1.021a.5.5 0 0 0-.283.088.5.5 0 0 0-.076.065.5.5 0 0 0-.141.347v11.39a.5.5 0 0 0 .5.5l10.553 10.552z" color="#000" font-family="sans-serif" font-weight="400" style="line-height:normal;text-indent:0;text-align:start;text-decoration-line:none;text-decoration-style:solid;text-decoration-color:#000;text-transform:none;block-progression:tb;isolation:auto;mix-blend-mode:normal" transform="translate(0 1016.362)"></path>
    <path fill="#fff" d="m15.32 10-9.1.021a.5.5 0 0 0-.282.088.5.5 0 0 0-.077.065.5.5 0 0 0-.14.347v11.39a.5.5 0 0 0 .5.5h13.765c.73.534 1.623.86 2.594.86 2.437 0 4.42-1.992 4.42-4.433 0-1.582-.84-2.964-2.088-3.748v-4.506a.5.5 0 0 0-.492-.574L15.322 10a.5.5 0 0 0-.002 0zm-7.355 1.021h14.697l-7.342 4.594-7.355-4.594zm15.947.395v3.219c-.31-.1-.632-.164-.967-.192a1.972 1.972 0 0 0-.365-.037 4.381 4.381 0 0 0-2.47.758 4.482 4.482 0 0 0-1.604 1.951 4.399 4.399 0 0 0 .488 4.295H6.721v-9.988l8.336 5.205a.5.5 0 0 0 .529 0l8.326-5.211zm-1.332 3.99c.203 0 .4.025.594.059.055.01.11.018.166.031.175.04.344.093.508.158.058.024.114.052.172.078A3.415 3.415 0 0 1 26 18.838a3.42 3.42 0 0 1-3.42 3.433 3.388 3.388 0 0 1-2.18-.802 3.425 3.425 0 0 1-.435-.438c-.031-.037-.062-.074-.092-.113a3.433 3.433 0 0 1-.324-.516c-.02-.037-.043-.071-.06-.109a3.425 3.425 0 0 1-.202-.568c-.013-.05-.034-.096-.045-.147a3.443 3.443 0 0 1-.084-.74 3.48 3.48 0 0 1 .268-1.34c.086-.205.193-.4.316-.582a3.409 3.409 0 0 1 2.838-1.51zm1.516 1.922a.5.5 0 0 0-.344.152l-1.65 1.659-.702-.674a.5.5 0 0 0-.363-.143.5.5 0 0 0-.33.866l.969.927a.5.5 0 0 0 .785.08l2-2.01a.5.5 0 0 0-.365-.857z" color="#000" font-family="sans-serif" font-weight="400" overflow="visible" style="line-height:normal;text-indent:0;text-align:start;text-decoration-line:none;text-decoration-style:solid;text-decoration-color:#000;text-transform:none;block-progression:tb;isolation:auto;mix-blend-mode:normal" transform="translate(2.28 1019.362)"></path>
  </g>
</svg>
